<?xml version="1.0" standalone="no"?>
<!DOCTYPE svg PUBLIC "-//W3C//DTD SVG 20010904//EN"
 "http://www.w3.org/TR/2001/REC-SVG-20010904/DTD/svg10.dtd">
<svg version="1.0" xmlns="http://www.w3.org/2000/svg"
 width="630.000000pt" height="420.000000pt" viewBox="0 0 630.000000 420.000000"
 preserveAspectRatio="xMidYMid meet">

<g transform="translate(0.000000,420.000000) scale(0.100000,-0.100000)"
fill="#000000" stroke="none">
<path d="M5037 4058 c-9 -13 -14 -16 -11 -7 4 13 -16 7 -78 -23 -46 -22 -85
-44 -86 -49 -2 -5 -8 -7 -12 -4 -5 3 -35 -8 -67 -24 -32 -16 -49 -29 -38 -28
11 0 32 -3 48 -6 15 -4 27 -3 27 2 0 5 13 7 30 5 23 -4 29 -2 24 9 -3 8 2 17
10 20 10 4 14 0 13 -16 -1 -26 -14 -37 -44 -37 -13 0 -23 -6 -23 -14 0 -21
-27 -27 -41 -10 -10 12 -14 12 -21 2 -6 -10 -10 -10 -17 1 -8 12 -12 12 -25 2
-8 -7 -25 -11 -38 -8 l-23 4 23 8 c22 7 31 25 12 25 -20 0 -80 -34 -70 -40 12
-8 3 -40 -12 -40 -5 0 -6 5 -3 10 8 12 2 13 -27 1 -47 -19 -64 -24 -83 -25
-20 -1 -22 -12 -10 -76 5 -23 4 -24 -9 -6 -8 10 -19 15 -25 11 -13 -8 -14 -3
-1 29 11 31 14 31 -45 5 -34 -15 -44 -24 -36 -32 6 -6 11 -16 11 -22 0 -5 -7
-1 -15 9 -14 19 -16 19 -55 1 -31 -14 -39 -22 -34 -37 3 -12 0 -18 -10 -18
-10 0 -13 6 -10 15 8 19 3 19 -41 -2 -25 -12 -35 -23 -35 -40 0 -13 -4 -23
-10 -23 -5 0 -10 7 -10 15 0 8 -2 15 -5 15 -2 0 -43 -18 -90 -40 -78 -36 -85
-41 -76 -59 14 -25 14 -31 1 -31 -5 0 -10 6 -10 14 0 19 -17 29 -32 19 -7 -4
-17 -8 -23 -9 -5 -1 -62 -26 -125 -56 -63 -30 -190 -90 -282 -133 -93 -43
-168 -80 -168 -83 0 -3 7 -14 17 -24 9 -10 14 -20 12 -23 -9 -8 -49 8 -47 19
2 6 -1 13 -5 15 -12 5 -147 -59 -147 -71 0 -6 -6 -8 -13 -5 -8 3 -20 1 -28 -4
-11 -7 -11 -9 -1 -9 7 0 10 -5 7 -10 -4 -6 5 -5 19 2 14 6 26 15 26 20 0 4 5
8 11 8 6 0 8 -9 4 -22 -6 -17 -4 -20 10 -14 12 4 25 -1 37 -14 10 -11 29 -20
42 -20 24 0 369 158 374 172 2 4 12 8 22 8 27 0 40 28 28 60 -12 35 7 89 25
71 9 -10 8 -15 -7 -27 -11 -8 -15 -14 -9 -14 6 0 9 -9 6 -19 -3 -11 1 -26 8
-34 11 -12 23 -9 79 18 36 18 89 43 118 55 35 15 51 27 48 36 -3 8 -1 14 3 14
5 0 11 -4 13 -9 2 -5 37 8 78 28 70 34 75 38 72 65 -2 16 1 33 7 39 6 6 9 0 9
-22 -1 -17 1 -33 3 -35 2 -3 41 13 86 34 45 22 105 49 132 61 31 13 51 28 51
38 0 11 3 12 8 4 5 -8 55 11 167 63 160 76 190 92 147 81 -15 -3 -22 -1 -19 6
2 7 11 11 20 11 10 -1 13 4 10 14 -4 10 -1 13 8 10 8 -3 13 -13 11 -22 -3 -15
0 -15 30 -3 78 34 86 40 81 56 -4 12 -3 13 5 3 7 -11 16 -11 46 2 l37 15 18
-42 c26 -58 77 -168 150 -320 33 -71 61 -132 61 -137 0 -5 8 -7 18 -4 12 4 13
3 4 -3 -19 -14 65 -193 91 -193 10 0 21 9 24 20 3 11 9 17 14 14 5 -3 7 -9 4
-14 -3 -5 3 -15 13 -22 22 -15 39 -58 23 -58 -5 0 -12 9 -16 19 -10 32 -29 42
-50 28 -16 -13 -4 -42 174 -425 186 -399 210 -462 165 -445 -19 7 -18 -21 1
-40 13 -13 13 -16 -1 -27 -12 -11 -13 -10 -8 4 4 11 2 16 -7 14 -10 -2 -13 5
-11 21 2 13 -1 22 -6 20 -5 -2 -168 -78 -361 -168 -246 -115 -351 -169 -351
-180 0 -13 -2 -13 -9 -3 -6 11 -21 7 -70 -17 -38 -20 -59 -36 -55 -43 5 -7 -2
-9 -19 -6 -24 5 -26 3 -21 -18 7 -27 2 -29 -27 -14 -13 7 -19 7 -19 0 0 -5 7
-10 15 -10 8 0 15 -4 15 -10 0 -5 -10 -9 -21 -7 -17 2 -24 -6 -33 -36 -6 -22
-14 -36 -18 -31 -11 10 -38 -16 -38 -37 0 -23 -18 -35 -33 -20 -13 13 21 91
40 91 11 0 29 38 21 45 -6 6 -153 -70 -154 -80 0 -5 -4 -34 -9 -64 -6 -41 -10
-49 -17 -37 -5 10 -6 25 -2 34 4 9 8 29 9 44 3 27 2 27 -29 14 -37 -16 -129
-59 -136 -64 -3 -2 4 -10 15 -18 16 -12 17 -16 6 -23 -8 -5 -10 -14 -6 -21 5
-9 4 -11 -4 -6 -6 4 -9 16 -6 26 11 34 -63 16 -198 -47 -123 -58 -133 -66
-119 -88 10 -14 88 -55 106 -55 28 0 86 34 86 50 0 20 34 118 45 128 4 4 5 -6
1 -23 -19 -85 -23 -105 -18 -105 2 0 31 12 63 26 42 19 56 30 52 41 -5 12 -1
14 14 9 22 -7 61 7 106 37 15 10 27 16 27 12 0 -11 65 27 83 49 12 14 20 17
23 9 7 -15 94 25 94 43 0 7 8 10 18 8 28 -8 193 74 200 99 4 16 7 18 11 6 5
-13 39 0 178 65 l173 80 -27 17 c-41 27 -47 46 -21 60 19 9 21 9 11 -2 -17
-18 -16 -29 2 -29 8 0 15 -4 15 -9 0 -5 13 -12 30 -16 22 -5 46 2 97 27 37 19
108 53 156 76 54 26 85 47 81 53 -4 7 0 9 14 5 14 -5 56 11 135 50 l114 57
-50 102 c-39 80 -54 102 -66 97 -14 -5 -14 -3 -3 10 17 21 -2 63 -24 54 -8 -3
-14 -1 -14 3 0 5 5 11 11 13 16 5 -181 428 -199 428 -9 0 -11 7 -7 21 5 15 4
19 -4 14 -7 -4 -19 -1 -27 6 -11 9 -18 8 -35 -7 -17 -16 -22 -16 -29 -4 -7 11
-10 12 -10 2 0 -7 -4 -10 -10 -7 -5 3 -10 13 -10 21 0 12 7 14 30 9 20 -4 35
-2 44 8 21 21 7 30 -20 12 -21 -13 -23 -13 -29 5 -3 11 -3 25 1 31 3 6 2 14
-4 18 -7 4 -8 12 -1 21 8 13 11 13 20 -3 6 -9 14 -15 18 -13 5 3 13 -6 20 -21
6 -14 14 -23 17 -21 9 10 -19 58 -34 58 -8 0 -12 6 -8 15 8 21 -43 135 -61
135 -10 0 -13 6 -9 16 3 8 -1 31 -9 51 -13 30 -18 34 -28 24 -9 -11 -9 -14 1
-18 9 -3 11 -16 6 -40 -5 -26 -4 -34 5 -29 16 10 14 -3 -3 -20 -20 -20 -28 -3
-20 46 6 36 4 42 -15 47 -26 7 -28 23 -2 23 11 0 22 4 25 9 6 10 -260 590
-278 606 -6 6 -13 19 -14 30 -6 33 -18 37 -35 13z m13 -55 c0 -19 -18 -25 -41
-13 -19 11 -20 10 -14 -10 7 -21 4 -22 -24 -18 -17 2 -32 0 -35 -6 -2 -7 -7
-8 -14 -1 -7 7 5 18 39 35 27 13 48 29 45 36 -3 8 2 9 20 0 13 -6 24 -16 24
-23z m-290 -153 c0 -5 -4 -10 -10 -10 -5 0 -10 5 -10 10 0 6 5 10 10 10 6 0
10 -4 10 -10z m-290 -141 c0 -11 -4 -17 -10 -14 -5 3 -10 13 -10 21 0 8 5 14
10 14 6 0 10 -9 10 -21z m-70 -21 c0 -18 -2 -20 -9 -8 -6 8 -7 18 -5 22 9 14
14 9 14 -14z m-110 -28 c0 -5 -4 -10 -10 -10 -5 0 -10 5 -10 10 0 6 5 10 10
10 6 0 10 -4 10 -10z m-30 -71 c0 -6 -4 -7 -10 -4 -5 3 -10 11 -10 16 0 6 5 7
10 4 6 -3 10 -11 10 -16z m1040 -50 c0 -5 -4 -9 -10 -9 -5 0 -10 7 -10 16 0 8
5 12 10 9 6 -3 10 -10 10 -16z m-1310 -28 c0 -5 -7 -12 -16 -15 -14 -5 -15 -4
-4 9 14 17 20 19 20 6z m1295 -11 c-3 -5 -11 -10 -16 -10 -6 0 -7 5 -4 10 3 6
11 10 16 10 6 0 7 -4 4 -10z m-1315 -45 c0 -8 -4 -15 -9 -15 -5 0 -11 7 -15
15 -3 9 0 15 9 15 8 0 15 -7 15 -15z m1340 -74 c0 -6 -4 -13 -10 -16 -5 -3
-10 1 -10 9 0 9 5 16 10 16 6 0 10 -4 10 -9z m-1690 -33 c0 -19 -2 -20 -10 -8
-13 19 -13 30 0 30 6 0 10 -10 10 -22z m1693 -21 c4 3 7 1 7 -6 0 -8 -6 -11
-16 -7 -9 3 -18 6 -20 6 -2 0 -4 8 -4 18 1 16 1 16 14 0 7 -10 16 -15 19 -11z
m-1808 -27 c-10 -11 -25 -20 -33 -20 -9 0 -6 7 9 20 31 25 47 26 24 0z m80 10
c3 -5 1 -10 -4 -10 -6 0 -11 5 -11 10 0 6 2 10 4 10 3 0 8 -4 11 -10z m-25
-10 c0 -5 -4 -10 -10 -10 -5 0 -10 5 -10 10 0 6 5 10 10 10 6 0 10 -4 10 -10z
m-30 -40 c0 -5 -4 -10 -10 -10 -5 0 -10 5 -10 10 0 6 5 10 10 10 6 0 10 -4 10
-10z m-180 -54 c0 -3 -4 -8 -10 -11 -5 -3 -10 -1 -10 4 0 6 5 11 10 11 6 0 10
-2 10 -4z m3 -36 c-3 -11 -9 -20 -14 -20 -14 0 -11 28 4 33 6 3 13 6 14 6 0 1
-1 -8 -4 -19z m2187 -217 c0 -15 -17 -17 -22 -4 -1 5 -10 11 -18 13 -8 2 -18
8 -22 13 -4 6 -8 2 -8 -7 0 -10 -4 -18 -10 -18 -13 0 -13 13 0 26 14 14 80 -6
80 -23z m30 -13 c0 -5 -4 -10 -10 -10 -5 0 -10 5 -10 10 0 6 5 10 10 10 6 0
10 -4 10 -10z m100 -291 c0 -11 -4 -18 -10 -14 -5 3 -7 12 -3 20 7 21 13 19
13 -6z m50 -188 c0 -6 -4 -13 -10 -16 -5 -3 -10 1 -10 9 0 9 5 16 10 16 6 0
10 -4 10 -9z m57 -83 c-3 -8 -6 -5 -6 6 -1 11 2 17 5 13 3 -3 4 -12 1 -19z
m33 -48 c0 -5 -4 -10 -10 -10 -5 0 -10 5 -10 10 0 6 5 10 10 10 6 0 10 -4 10
-10z m10 -57 c0 -7 -4 -13 -10 -13 -5 0 -10 12 -10 28 0 21 2 24 10 12 5 -8
10 -21 10 -27z m-116 -42 c3 -5 -1 -11 -9 -14 -9 -4 -12 -1 -8 9 6 16 10 17
17 5z m-264 -61 c0 -5 -2 -10 -4 -10 -3 0 -8 5 -11 10 -3 6 -1 10 4 10 6 0 11
-4 11 -10z m55 0 c3 -5 1 -10 -4 -10 -6 0 -11 5 -11 10 0 6 2 10 4 10 3 0 8
-4 11 -10z m-135 -90 c0 -5 -12 -10 -26 -10 -14 0 -23 4 -19 10 3 6 15 10 26
10 10 0 19 -4 19 -10z m30 -10 c0 -5 -4 -10 -10 -10 -5 0 -10 5 -10 10 0 6 5
10 10 10 6 0 10 -4 10 -10z m-535 -190 c3 -5 1 -10 -4 -10 -6 0 -11 5 -11 10
0 6 2 10 4 10 3 0 8 -4 11 -10z m-445 -225 c7 -8 9 -15 6 -15 -4 0 -14 7 -22
15 -9 8 -11 15 -6 15 5 0 15 -7 22 -15z m-20 -35 c0 -5 -2 -10 -4 -10 -3 0 -8
5 -11 10 -3 6 -1 10 4 10 6 0 11 -4 11 -10z m-53 -32 c-3 -8 -6 -5 -6 6 -1 11
2 17 5 13 3 -3 4 -12 1 -19z"/>
<path d="M4795 3890 c-3 -5 -1 -10 4 -10 6 0 11 5 11 10 0 6 -2 10 -4 10 -3 0
-8 -4 -11 -10z"/>
<path d="M4918 3832 c-32 -15 -58 -33 -59 -42 0 -10 -2 -11 -6 -3 -3 10 -11 9
-34 -2 -29 -15 -39 -35 -18 -35 6 0 44 16 86 35 42 19 78 34 79 32 3 -3 38
-75 157 -329 25 -54 49 -98 52 -98 3 0 1 9 -5 20 -6 12 -9 29 -5 39 3 10 -3
29 -13 42 -10 13 -27 47 -37 74 -10 28 -38 89 -62 137 -24 49 -43 90 -43 93 0
7 -30 65 -33 64 -1 -1 -28 -13 -59 -27z"/>
<path d="M4710 3735 c-14 -8 -69 -35 -122 -59 -54 -25 -98 -50 -98 -55 0 -16
14 -14 72 13 147 66 188 88 188 101 0 19 -8 18 -40 0z"/>
<path d="M4333 3559 c-79 -38 -123 -65 -123 -75 0 -8 3 -13 8 -11 4 3 52 25
107 51 134 61 148 69 153 84 7 21 -19 12 -145 -49z"/>
<path d="M4085 3442 c-55 -27 -140 -66 -188 -88 -80 -35 -108 -56 -95 -69 8
-9 380 171 389 188 14 25 4 22 -106 -31z"/>
<path d="M5180 3363 c0 -7 6 -12 13 -10 6 1 12 -8 12 -20 0 -11 6 -32 12 -45
7 -12 40 -84 74 -158 67 -147 74 -158 82 -137 7 20 -163 384 -179 384 -8 0
-14 -6 -14 -14z"/>
<path d="M4654 3346 c-11 -6 -55 -27 -97 -46 -69 -31 -94 -50 -67 -50 6 0 10
-7 10 -15 0 -8 5 -15 11 -15 5 0 7 -5 4 -11 -4 -6 -16 2 -29 19 l-21 29 -50
-23 c-28 -13 -74 -34 -103 -48 -45 -20 -51 -25 -33 -31 12 -3 21 -11 21 -16 0
-6 5 -7 11 -3 7 4 10 1 7 -7 -3 -8 -13 -13 -22 -13 -9 1 -16 -4 -16 -12 0 -8
-5 -14 -11 -14 -7 0 -9 10 -5 28 5 19 4 23 -3 13 -8 -12 -12 -13 -26 -1 -24
20 -115 -24 -115 -57 0 -27 -15 -30 -29 -5 -22 37 -10 -14 14 -58 l24 -45 -6
38 c-4 24 -2 37 5 37 6 0 14 -22 18 -50 4 -27 11 -50 17 -50 6 0 5 -5 -1 -13
-11 -13 1 -41 153 -362 44 -94 48 -98 57 -75 6 14 10 33 9 42 -2 12 3 16 13
12 20 -8 20 -24 1 -60 -10 -20 -11 -30 -4 -35 8 -4 7 -8 -2 -11 -17 -6 69
-198 89 -198 9 0 12 -6 8 -16 -3 -8 -1 -24 4 -35 10 -18 13 -18 78 14 37 18
105 51 151 73 l84 40 -37 18 c-36 17 -48 36 -22 36 8 0 18 -5 22 -11 3 -6 17
-8 30 -5 17 5 24 2 24 -9 0 -24 29 -17 42 10 12 27 31 35 21 9 -5 -13 -2 -15
13 -7 10 6 40 20 67 32 26 13 45 26 42 31 -3 4 2 11 11 14 8 3 12 2 9 -4 -9
-14 -1 -13 40 7 l35 17 -30 53 c-17 29 -30 59 -30 67 0 8 -4 17 -9 20 -16 10
-41 -5 -41 -24 0 -10 -7 -21 -16 -24 -12 -4 -14 -1 -9 14 6 17 -4 15 -77 -20
-60 -30 -85 -47 -91 -65 -5 -14 -13 -25 -18 -25 -13 0 -11 18 4 23 6 2 9 7 6
11 -9 9 -150 -57 -146 -69 2 -5 12 -9 21 -9 9 1 16 -2 16 -7 0 -5 7 -9 15 -9
18 0 20 -17 3 -22 -7 -3 -31 0 -54 5 -41 10 -42 11 -28 32 14 21 12 28 -13 81
-15 33 -29 61 -30 62 -5 10 -39 -36 -35 -48 3 -7 0 -10 -7 -6 -16 10 -14 24 9
43 24 21 25 35 5 74 l-16 30 86 40 c48 23 85 43 82 45 -3 4 -51 11 -92 13 -11
1 -15 4 -10 10 6 5 35 5 68 1 72 -10 74 -10 169 33 l77 35 -25 51 c-13 28 -29
51 -35 51 -6 0 -9 6 -6 13 3 8 2 19 -3 26 -5 10 -20 6 -61 -14 -30 -15 -56
-32 -57 -36 -2 -5 -8 -7 -13 -3 -5 3 -9 0 -9 -6 0 -6 -6 -10 -12 -8 -25 5 -73
-23 -93 -55 -20 -32 -36 -38 -43 -18 -2 6 3 11 12 11 9 0 16 5 16 10 0 11 -64
-12 -87 -31 -7 -6 -13 -21 -13 -33 0 -12 -5 -27 -12 -34 -9 -9 -7 -13 5 -18 9
-3 17 -17 17 -29 0 -13 4 -27 10 -30 6 -4 5 -11 -3 -19 -17 -19 -28 -9 -23 20
5 28 1 30 -21 9 -8 -8 -19 -12 -25 -9 -6 4 -5 10 3 15 12 7 12 9 0 9 -9 0 -11
8 -7 26 6 23 4 26 -13 21 -12 -3 -24 -1 -27 5 -4 7 -9 6 -14 -2 -4 -7 -13 -2
-25 16 -17 26 -17 27 1 19 38 -17 104 -18 110 -2 3 8 -18 64 -46 123 -34 74
-49 116 -45 132 3 12 10 20 16 16 6 -3 23 -1 39 6 33 14 31 40 -3 33 -19 -4
-18 -2 8 21 25 21 28 27 15 35 -11 8 -19 3 -33 -19 -24 -37 -29 -38 -25 -2 6
46 20 59 75 65 41 5 53 3 57 -9 9 -24 7 -36 -4 -29 -6 4 -8 11 -5 16 4 5 -5 9
-19 9 -14 0 -28 -5 -32 -12 -5 -8 -2 -9 9 -5 10 3 17 2 17 -3 0 -6 -5 -10 -11
-10 -5 0 -7 -4 -4 -10 3 -5 2 -10 -3 -10 -5 0 -9 -10 -8 -22 2 -26 10 -26 74
2 23 11 45 26 48 34 3 9 10 16 16 16 5 0 7 -4 3 -9 -3 -5 22 2 55 16 53 23 59
29 54 50 -4 13 -2 23 4 23 6 0 12 -9 14 -20 2 -13 7 -17 16 -12 9 7 7 17 -13
46 -14 20 -25 45 -25 54 -1 9 -6 26 -13 38 -10 17 -16 18 -33 10z m-7 -106
c-1 -11 -5 -20 -9 -20 -4 0 -8 9 -8 20 0 11 4 20 9 20 6 0 9 -9 8 -20z m-169
-28 c6 -18 -15 -14 -22 4 -4 10 -1 14 6 12 6 -2 14 -10 16 -16z m182 -33 c0
-6 -4 -7 -10 -4 -5 3 -10 11 -10 16 0 6 5 7 10 4 6 -3 10 -11 10 -16z m-90
-40 c0 -5 -7 -9 -15 -9 -15 0 -20 12 -9 23 8 8 24 -1 24 -14z m-220 -29 c0
-11 -4 -20 -10 -20 -5 0 -10 9 -10 20 0 11 5 20 10 20 6 0 10 -9 10 -20z m-50
-71 c0 -5 -4 -9 -10 -9 -5 0 -10 7 -10 16 0 8 5 12 10 9 6 -3 10 -10 10 -16z
m30 4 c0 -24 -12 -39 -27 -37 -26 3 -28 5 -10 15 9 5 17 17 17 24 0 8 5 15 10
15 6 0 10 -8 10 -17z m-16 -94 c-9 -11 -19 -17 -21 -15 -8 7 21 45 30 39 4 -3
1 -14 -9 -24z m476 -19 c0 -5 -5 -10 -11 -10 -5 0 -7 5 -4 10 3 6 8 10 11 10
2 0 4 -4 4 -10z m-430 -20 c0 -5 -5 -10 -11 -10 -5 0 -7 5 -4 10 3 6 8 10 11
10 2 0 4 -4 4 -10z m440 -10 c0 -5 -2 -10 -4 -10 -3 0 -8 5 -11 10 -3 6 -1 10
4 10 6 0 11 -4 11 -10z m-447 -57 c4 -18 3 -33 -2 -33 -12 0 -21 26 -21 58 0
34 15 17 23 -25z m-60 7 c-3 -11 -9 -20 -14 -20 -11 0 -11 3 -3 24 9 23 23 20
17 -4z m97 0 c0 -5 -4 -10 -10 -10 -5 0 -10 5 -10 10 0 6 5 10 10 10 6 0 10
-4 10 -10z m428 -7 c-3 -5 -11 -23 -18 -40 -8 -18 -18 -33 -22 -33 -12 0 -4
44 12 61 15 17 35 25 28 12z m-585 -17 c6 -15 -1 -26 -15 -26 -4 0 -8 9 -8 20
0 23 15 27 23 6z m87 -14 c0 -12 -42 -30 -58 -24 -10 3 -6 8 10 17 27 15 48
18 48 7z m90 -18 c0 -8 -4 -12 -10 -9 -5 3 -10 10 -10 16 0 5 5 9 10 9 6 0 10
-7 10 -16z m134 -58 c-6 -15 -34 -23 -34 -10 0 8 34 34 38 30 1 -2 0 -11 -4
-20z m6 -55 c0 -6 -4 -13 -10 -16 -5 -3 -10 1 -10 9 0 9 5 16 10 16 6 0 10 -4
10 -9z m-121 -62 c-5 -11 -7 -24 -4 -29 3 -6 1 -10 -4 -10 -6 0 -11 -7 -11
-15 0 -8 -4 -15 -8 -15 -18 0 -19 12 -5 40 8 17 12 34 8 40 -11 17 5 32 21 19
10 -8 11 -16 3 -30z m501 -99 c0 -5 -2 -10 -4 -10 -3 0 -8 5 -11 10 -3 6 -1
10 4 10 6 0 11 -4 11 -10z m130 -11 c0 -5 -5 -9 -11 -9 -5 0 -7 -4 -4 -10 3
-5 1 -18 -4 -27 -12 -21 -13 -19 -15 23 -2 23 2 30 16 31 10 1 18 -2 18 -8z
m-170 -37 c0 -5 -7 -17 -16 -28 -8 -10 -14 -14 -11 -9 2 6 7 18 10 28 7 17 17
23 17 9z m-375 -11 c3 -5 -4 -12 -15 -16 -37 -12 -21 -20 39 -20 33 0 63 -4
67 -8 13 -12 -18 -28 -41 -21 -11 3 -27 7 -35 8 -79 13 -100 20 -111 32 -9 11
-8 14 3 14 8 0 19 -5 25 -11 8 -8 14 -5 22 10 12 22 36 28 46 12z m305 -11 c0
-5 -4 -10 -10 -10 -5 0 -10 5 -10 10 0 6 5 10 10 10 6 0 10 -4 10 -10z m-61
-52 c1 -5 -3 -8 -8 -8 -12 0 -22 30 -14 43 6 10 20 -13 22 -35z m1 -78 c0 -5
-4 -10 -10 -10 -5 0 -10 5 -10 10 0 6 5 10 10 10 6 0 10 -4 10 -10z m-203 -62
c-3 -8 -6 -5 -6 6 -1 11 2 17 5 13 3 -3 4 -12 1 -19z m-27 -18 c0 -5 -4 -10
-9 -10 -6 0 -13 5 -16 10 -3 6 1 10 9 10 9 0 16 -4 16 -10z"/>
<path d="M3730 3276 c-14 -8 -97 -46 -185 -86 -88 -40 -165 -79 -171 -86 -6
-8 -13 -11 -16 -8 -7 7 -98 -38 -98 -49 0 -4 -4 -6 -8 -3 -5 3 -9 -1 -9 -9 0
-8 2 -15 3 -15 2 0 63 28 136 63 73 35 195 92 270 127 76 34 135 67 132 71 -7
13 -25 11 -54 -5z"/>
<path d="M3085 3131 c-14 -15 -25 -32 -25 -39 0 -8 -11 -8 -43 2 -37 11 -48
10 -85 -5 -23 -10 -42 -23 -42 -30 0 -6 12 -33 26 -59 l26 -48 75 34 c42 19
77 34 79 34 2 0 1 6 -2 14 -3 8 -1 17 5 21 6 3 11 -1 11 -10 0 -14 3 -14 30 0
17 9 30 20 30 26 0 6 6 7 13 3 6 -4 3 2 -7 14 -22 25 -6 30 18 6 15 -14 16
-14 16 5 0 12 5 21 12 21 14 0 3 13 -15 17 -91 21 -95 21 -122 -6z"/>
<path d="M3034 3135 c-16 -12 -16 -14 -3 -15 9 0 22 7 29 15 16 19 0 19 -26 0z"/>
<path d="M3240 3135 c0 -18 19 -40 26 -32 4 4 0 15 -9 24 -9 10 -17 13 -17 8z"/>
<path d="M2842 3047 c-12 -7 -20 -16 -16 -19 3 -4 -2 -6 -12 -6 -26 2 -114
-38 -114 -52 0 -6 -4 -9 -9 -6 -16 10 -130 -45 -125 -59 7 -17 -16 -31 -25
-16 -5 8 -20 6 -54 -9 -50 -22 -52 -35 -14 -77 l20 -22 -39 6 c-21 4 -46 15
-54 26 -15 18 -17 18 -88 -13 -61 -28 -72 -37 -72 -57 0 -29 -27 -83 -41 -83
-11 0 -4 29 17 72 13 24 12 27 -1 22 -8 -4 -15 -10 -15 -16 0 -5 -4 -7 -9 -3
-14 8 -61 -16 -54 -28 3 -6 1 -7 -5 -3 -6 3 -22 1 -37 -6 -20 -9 -25 -17 -20
-32 4 -12 9 -39 12 -61 2 -22 6 -42 8 -44 2 -2 139 60 303 137 165 77 351 164
415 194 l115 53 -29 57 c-16 32 -30 58 -32 58 -1 -1 -12 -6 -25 -13z m48 -65
c0 -15 -2 -15 -10 -2 -13 20 -13 33 0 25 6 -3 10 -14 10 -23z m-75 -2 c3 -5 1
-10 -4 -10 -6 0 -11 5 -11 10 0 6 2 10 4 10 3 0 8 -4 11 -10z m35 -30 c0 -5
-2 -10 -4 -10 -3 0 -8 5 -11 10 -3 6 -1 10 4 10 6 0 11 -4 11 -10z m-99 -52
c11 -21 11 -22 -4 -9 -10 7 -17 17 -17 22 0 15 9 10 21 -13z m-41 -13 c7 -9 8
-15 2 -15 -5 0 -12 7 -16 15 -3 8 -4 15 -2 15 2 0 9 -7 16 -15z"/>
<path d="M3200 3030 c-8 -5 -71 -35 -140 -66 -69 -32 -130 -64 -136 -71 -6 -7
-18 -13 -27 -13 -27 0 -108 -40 -102 -50 10 -16 17 -13 147 48 68 32 160 76
206 97 45 21 82 44 82 52 0 15 -8 16 -30 3z"/>
<path d="M3913 3002 c-30 -15 -53 -33 -53 -42 0 -10 -3 -11 -8 -3 -6 9 -23 5
-65 -14 -40 -18 -54 -29 -45 -34 10 -7 10 -9 -2 -9 -10 0 -21 -22 -34 -67 -10
-38 -33 -115 -51 -173 -18 -59 -28 -108 -23 -111 5 -3 2 -12 -7 -19 -21 -18
-19 -47 5 -55 32 -10 24 -28 -9 -22 -28 6 -30 4 -41 -43 -13 -54 -24 -63 -33
-27 -4 12 -13 31 -22 42 -16 19 -16 19 -9 -5 5 -19 3 -22 -5 -14 -7 6 -14 29
-17 50 -7 69 -13 84 -34 84 -21 0 -28 16 -10 22 12 4 -69 188 -82 188 -4 0 -8
-12 -8 -27 -1 -26 -2 -27 -14 -10 -12 15 -18 16 -35 7 -28 -14 -27 -23 2 -14
22 7 22 6 3 -15 -17 -18 -20 -19 -30 -5 -10 14 -17 13 -61 -6 -27 -12 -51 -23
-52 -24 -3 -3 19 -52 131 -289 25 -55 46 -100 46 -102 0 -1 29 -64 65 -140 36
-75 65 -141 65 -147 0 -6 11 -3 25 6 30 20 39 20 32 1 -4 -8 -2 -17 4 -20 5
-4 13 4 18 17 8 21 10 21 16 5 9 -22 -23 -63 -38 -48 -5 5 -16 7 -23 4 -11 -4
-9 -13 8 -46 27 -54 23 -52 54 -33 14 10 27 16 29 14 1 -2 8 -14 15 -28 12
-24 12 -24 -6 -9 -16 13 -23 14 -42 4 -20 -11 -21 -14 -7 -25 8 -7 15 -23 15
-36 0 -12 4 -25 9 -28 5 -3 54 16 109 42 l100 48 -54 113 c-30 62 -54 114 -54
116 0 3 -18 41 -40 86 -22 45 -40 83 -40 85 0 1 41 -15 92 -37 50 -22 97 -38
104 -35 8 3 17 -1 21 -8 9 -15 93 -60 93 -50 0 4 -8 21 -19 38 -10 17 -22 49
-27 71 -5 29 -9 34 -11 18 -3 -12 -11 -27 -18 -33 -12 -10 -14 -6 -12 22 1 18
7 36 12 40 6 5 5 8 -2 8 -7 0 -13 6 -13 14 0 17 -20 25 -54 22 -14 -2 -26 1
-26 6 0 5 -5 6 -12 2 -8 -5 -9 0 -6 14 4 14 2 22 -7 22 -7 0 -18 7 -25 15 -7
8 -8 15 -3 15 16 0 116 -57 141 -80 17 -16 26 -19 36 -11 7 6 16 8 19 4 4 -3
7 -1 7 5 0 15 -33 36 -90 58 -25 9 -46 18 -48 19 -1 1 29 99 68 217 38 119 70
220 70 227 0 6 -11 13 -25 17 -14 3 -25 10 -25 16 0 5 10 6 23 3 12 -4 26 -8
31 -9 7 -1 70 164 63 170 -1 1 -26 -10 -54 -24z m-123 -92 c0 -5 -4 -10 -10
-10 -5 0 -10 5 -10 10 0 6 5 10 10 10 6 0 10 -4 10 -10z m12 -155 c3 -14 1
-25 -3 -25 -5 0 -9 4 -9 9 0 5 -3 16 -6 25 -3 9 -2 16 4 16 5 0 12 -11 14 -25z
m-427 -95 c-3 -4 2 -11 11 -14 12 -5 13 -10 6 -19 -8 -9 -6 -16 9 -25 19 -12
27 -42 11 -42 -16 0 -52 41 -52 60 0 11 -6 20 -12 21 -10 0 -10 2 0 6 6 2 12
11 12 19 0 9 5 12 10 9 6 -4 8 -10 5 -15z m315 -140 c0 -5 -4 -10 -10 -10 -5
0 -10 5 -10 10 0 6 5 10 10 10 6 0 10 -4 10 -10z m-303 -45 c9 -25 -4 -29 -17
-6 -7 15 -7 21 0 21 6 0 13 -7 17 -15z m333 -26 c0 -6 -4 -7 -10 -4 -5 3 -10
11 -10 16 0 6 5 7 10 4 6 -3 10 -11 10 -16z m-300 -41 c0 -12 -10 -9 -26 6
-20 21 -17 28 6 14 11 -7 20 -16 20 -20z m286 5 c-7 -7 -26 7 -26 19 0 6 6 6
15 -2 9 -7 13 -15 11 -17z m-156 -239 c0 -8 -4 -12 -10 -9 -5 3 -10 10 -10 16
0 5 5 9 10 9 6 0 10 -7 10 -16z m18 -125 c18 -29 20 -30 36 -14 16 16 17 16
10 -11 -10 -43 -16 -49 -29 -30 -7 9 -18 15 -25 14 -13 -3 -33 49 -24 64 8 12
10 10 32 -23z m17 -149 c3 -5 1 -10 -4 -10 -6 0 -11 5 -11 10 0 6 2 10 4 10 3
0 8 -4 11 -10z m85 -65 c0 -8 -7 -15 -15 -15 -9 0 -12 6 -9 15 4 8 10 15 15
15 5 0 9 -7 9 -15z"/>
<path d="M5380 2945 c0 -14 7 -28 15 -31 8 -4 13 -10 10 -14 -6 -10 190 -430
205 -440 6 -4 10 -11 9 -16 -3 -20 2 -35 10 -29 5 3 12 1 16 -5 3 -5 1 -10 -4
-10 -6 0 -10 -4 -9 -10 2 -5 -100 -58 -227 -117 -126 -59 -231 -111 -233 -115
-2 -5 -9 -8 -15 -8 -7 0 -53 -19 -104 -41 -63 -29 -90 -46 -86 -55 3 -8 0 -14
-6 -14 -6 0 -11 4 -11 9 0 17 -139 -53 -144 -72 -3 -14 -10 -17 -25 -12 -22 7
-297 -115 -317 -140 -6 -8 -13 -12 -16 -9 -11 10 -118 -45 -118 -60 0 -20 1
-20 45 1 19 9 35 24 35 32 0 11 3 12 8 5 8 -13 234 87 240 106 2 5 8 8 13 4 5
-3 30 6 57 19 26 14 162 78 302 143 140 64 305 141 365 169 61 28 143 67 183
85 39 18 72 37 72 42 0 5 5 6 10 3 15 -10 12 16 -10 63 -10 23 -24 42 -30 42
-6 0 -9 4 -6 9 9 14 -66 171 -81 171 -10 0 -12 7 -8 19 4 13 -1 27 -14 40 -10
10 -17 22 -14 25 8 7 -98 236 -109 236 -4 0 -8 -11 -8 -25z"/>
<path d="M2700 2797 c-36 -18 -133 -63 -215 -101 -83 -38 -152 -71 -154 -73
-3 -2 1 -9 7 -15 8 -8 12 -8 12 -1 0 6 6 10 13 9 21 -2 427 188 424 198 -6 18
-22 15 -87 -17z"/>
<path d="M1987 2649 l-37 -20 34 -29 c47 -42 56 -38 56 20 0 28 -3 50 -7 50
-5 -1 -25 -10 -46 -21z"/>
<path d="M1852 2585 c-32 -15 -56 -33 -59 -45 -6 -21 -23 -28 -23 -9 0 15 -23
6 -173 -66 -73 -35 -149 -70 -169 -78 -38 -16 -42 -22 -39 -64 1 -11 -3 -24
-9 -28 -6 -3 -10 -3 -9 2 1 4 1 20 0 35 l-1 27 -77 -36 c-43 -19 -83 -41 -89
-49 -6 -7 -13 -11 -16 -8 -3 2 -17 0 -31 -7 -17 -8 -23 -17 -19 -28 5 -13 3
-14 -10 -3 -13 10 -40 0 -164 -58 -83 -39 -150 -76 -152 -85 -4 -16 -18 -20
-24 -6 -2 5 -51 -14 -110 -43 -88 -42 -106 -54 -98 -66 17 -26 10 -36 -9 -13
l-18 21 -71 -34 c-40 -18 -72 -35 -72 -37 0 -5 51 -118 117 -257 27 -58 123
-263 213 -457 90 -193 168 -349 172 -347 5 3 16 0 25 -8 12 -9 15 -9 9 0 -11
19 5 14 30 -9 15 -14 29 -18 48 -13 31 7 31 9 6 54 -18 32 -25 29 -21 -10 2
-12 0 -13 -7 -1 -8 11 -10 11 -14 0 -3 -8 -9 -11 -13 -7 -3 3 3 19 14 35 l22
29 -42 89 c-93 203 -132 279 -136 268 -3 -7 -18 -13 -35 -13 -22 0 -29 -4 -25
-14 4 -10 1 -13 -9 -9 -19 7 -18 19 3 27 15 6 15 8 3 17 -13 9 -13 10 0 6 20
-6 50 10 50 26 0 20 -151 341 -166 353 -8 6 -14 18 -14 27 0 8 -14 46 -30 83
-35 76 -33 80 35 107 22 8 85 37 140 63 70 33 94 49 80 52 -19 4 -35 19 -35
35 0 11 19 8 56 -9 33 -16 36 -15 100 15 42 19 68 38 71 51 3 11 10 20 15 20
6 0 8 -7 4 -15 -3 -8 -4 -15 -2 -15 2 0 43 19 92 43 49 24 104 49 121 56 18 7
30 18 27 23 -3 5 -17 2 -31 -7 -14 -10 -23 -13 -19 -7 3 5 -1 15 -9 22 -13 11
-13 14 2 25 9 7 23 11 30 8 8 -3 15 6 19 26 7 34 15 38 34 16 7 -8 8 -15 3
-15 -5 0 -9 -15 -10 -34 -1 -30 1 -32 21 -24 158 70 231 109 230 123 -2 17 12
21 18 5 2 -7 23 -3 53 11 61 26 59 25 49 40 -6 10 -9 9 -13 -4 -5 -13 -8 -11
-18 9 -10 21 -10 24 2 14 10 -8 14 -8 18 2 3 9 9 8 19 -6 14 -18 21 -16 166
49 129 59 149 71 139 84 -12 15 -96 71 -106 71 -4 0 -30 -11 -59 -25z m-72
-79 c0 -15 -24 -66 -31 -66 -12 0 -11 11 4 43 10 22 27 37 27 23z m-100 -67
c0 -6 -4 -7 -10 -4 -5 3 -10 11 -10 16 0 6 5 7 10 4 6 -3 10 -11 10 -16z
m-160 -39 c0 -5 -5 -10 -11 -10 -5 0 -7 5 -4 10 3 6 8 10 11 10 2 0 4 -4 4
-10z m-7 -84 c-9 -47 -28 -37 -24 12 3 40 5 44 16 29 7 -9 10 -28 8 -41z
m-428 -163 c-3 -19 -9 -32 -13 -29 -8 8 -4 75 6 90 10 17 15 -21 7 -61z m155
27 c0 -5 -4 -10 -10 -10 -5 0 -10 5 -10 10 0 6 5 10 10 10 6 0 10 -4 10 -10z
m-300 -60 c0 -5 -2 -10 -4 -10 -3 0 -8 5 -11 10 -3 6 -1 10 4 10 6 0 11 -4 11
-10z m-31 -61 c-22 -14 -33 -10 -19 6 7 8 17 12 22 9 6 -4 5 -10 -3 -15z
m-106 -31 c-2 -5 -13 -13 -25 -19 -18 -9 -19 -8 -13 10 5 15 2 21 -9 21 -22 0
-20 18 2 22 18 4 52 -22 45 -34z m-106 -19 c-14 -8 -22 -8 -30 0 -8 8 -3 11
19 11 25 -1 27 -2 11 -11z m133 1 c0 -5 -4 -10 -10 -10 -5 0 -10 5 -10 10 0 6
5 10 10 10 6 0 10 -4 10 -10z m-280 -320 c0 -5 -7 -10 -15 -10 -8 0 -15 5 -15
10 0 6 7 10 15 10 8 0 15 -4 15 -10z m21 -23 c-10 -9 -11 -8 -5 6 3 10 9 15
12 12 3 -3 0 -11 -7 -18z m109 -61 c0 -8 3 -23 6 -33 5 -16 4 -16 -10 1 -18
22 -21 46 -6 46 6 0 10 -6 10 -14z m20 -186 c0 -5 -4 -10 -10 -10 -5 0 -10 5
-10 10 0 6 5 10 10 10 6 0 10 -4 10 -10z m30 -30 c11 -7 6 -10 -22 -10 -20 0
-40 5 -43 10 -8 13 45 13 65 0z m60 -24 c0 -2 -9 -6 -20 -9 -11 -3 -20 -1 -20
4 0 5 9 9 20 9 11 0 20 -2 20 -4z m55 -136 c-3 -5 -13 -10 -21 -10 -8 0 -14 5
-14 10 0 6 9 10 21 10 11 0 17 -4 14 -10z m-5 -54 c0 -3 -4 -8 -10 -11 -5 -3
-10 -1 -10 4 0 6 5 11 10 11 6 0 10 -2 10 -4z"/>
<path d="M2233 2579 c-35 -16 -63 -33 -63 -39 0 -5 -7 -7 -15 -4 -11 5 -13 2
-9 -10 5 -13 10 -14 37 -2 78 33 146 70 141 78 -8 13 -24 9 -91 -23z"/>
<path d="M2110 2520 c-12 -7 -12 -12 -2 -22 9 -9 12 -9 12 1 0 7 4 9 10 6 6
-3 7 1 4 9 -7 19 -5 18 -24 6z"/>
<path d="M2062 2483 c6 -7 14 -10 19 -7 15 9 10 20 -10 20 -15 0 -17 -3 -9
-13z"/>
<path d="M1905 2426 c-90 -44 -125 -66 -114 -70 23 -10 249 98 249 118 0 9 -1
16 -2 16 -2 -1 -61 -29 -133 -64z"/>
<path d="M2461 2325 c-67 -32 -73 -37 -69 -60 3 -14 2 -25 -2 -25 -12 0 -17
-234 -5 -242 6 -5 4 -8 -5 -8 -12 0 -13 -2 -1 -9 9 -6 10 -14 5 -22 -10 -16
-12 -91 -3 -99 12 -10 19 -60 9 -60 -5 0 -10 9 -10 19 0 11 -4 23 -10 26 -6 4
-10 -31 -11 -97 0 -57 -2 -112 -4 -123 -2 -11 -5 -88 -8 -172 -4 -115 -2 -154
7 -162 7 -6 16 -8 19 -4 4 3 7 -1 7 -10 0 -10 -5 -17 -11 -17 -8 0 -7 -5 1
-15 7 -9 19 -14 26 -11 22 8 27 -14 8 -29 -33 -25 -5 -16 76 25 l80 40 2 53
c1 28 3 66 4 82 1 17 3 58 3 93 1 61 2 63 36 79 19 9 35 19 35 23 0 3 8 6 18
7 9 1 79 31 155 67 l138 65 -27 36 c-20 27 -29 33 -36 23 -6 -9 -7 -5 -3 10 4
14 2 22 -7 23 -7 0 0 5 16 9 35 11 49 4 41 -19 -5 -18 29 -71 46 -71 5 0 50
-32 99 -70 50 -39 90 -68 90 -65 0 3 -7 17 -16 30 -12 18 -13 25 -4 25 10 0
10 3 0 15 -7 8 -9 15 -4 15 13 0 52 -60 59 -92 8 -33 19 -34 60 -10 17 10 42
22 57 25 34 9 32 41 -7 96 -15 22 -34 55 -44 73 -11 22 -81 82 -216 185 -110
84 -266 204 -347 265 -81 62 -153 114 -160 115 -7 1 -46 -14 -87 -32z m92
-111 c-2 -7 0 -22 7 -33 6 -13 7 -21 1 -21 -10 0 -27 39 -23 54 2 4 -3 15 -10
24 -12 13 -11 14 9 2 11 -8 19 -19 16 -26z m-113 -14 c0 -5 -4 -10 -10 -10 -5
0 -10 5 -10 10 0 6 5 10 10 10 6 0 10 -4 10 -10z m23 -55 c-10 -7 -20 -12 -21
-10 -7 7 23 33 31 28 5 -3 0 -11 -10 -18z m47 5 c0 -5 7 -10 16 -10 9 0 18 -9
21 -20 3 -11 10 -20 15 -20 5 0 66 -48 136 -107 69 -58 132 -106 139 -106 21
0 15 -15 -8 -22 -12 -4 -73 -31 -136 -61 -63 -30 -116 -54 -119 -54 -2 0 -4
70 -4 155 l0 154 -40 43 c-40 44 -48 58 -30 58 6 0 10 -4 10 -10z m300 -10 c0
-5 -2 -10 -4 -10 -3 0 -8 5 -11 10 -3 6 -1 10 4 10 6 0 11 -4 11 -10z m45 -21
c11 -17 -1 -21 -15 -4 -8 9 -8 15 -2 15 6 0 14 -5 17 -11z m-385 -33 c0 -2 -7
-7 -16 -10 -8 -3 -12 -2 -9 4 6 10 25 14 25 6z m11 -48 c1 -13 3 -36 5 -51 2
-19 -1 -27 -9 -24 -7 2 -12 17 -13 33 0 16 -4 37 -8 47 -6 12 -4 17 8 17 10 0
16 -9 17 -22z m476 -80 c-4 -14 1 -18 19 -18 13 0 24 -4 24 -10 0 -5 -4 -10
-10 -10 -5 0 -10 -5 -10 -11 0 -6 6 -9 12 -7 7 3 27 -14 45 -36 25 -31 29 -43
21 -54 -10 -11 -13 -10 -22 5 -5 10 -24 31 -41 48 -18 16 -46 50 -64 75 -29
40 -30 45 -14 51 24 9 46 -10 40 -33z m93 2 c0 -5 -5 -10 -11 -10 -5 0 -7 5
-4 10 3 6 8 10 11 10 2 0 4 -4 4 -10z m-543 -102 c2 -10 -1 -18 -5 -18 -5 0
-9 6 -9 13 0 6 -3 23 -7 37 -6 23 -6 24 6 5 7 -11 13 -28 15 -37z m458 22 c4
-6 2 -17 -4 -24 -6 -7 -9 -16 -6 -20 3 -3 -2 0 -10 7 -9 8 -13 21 -9 30 7 19
20 22 29 7z m-445 -74 c0 -21 -23 -34 -45 -25 -14 5 -16 8 -5 9 8 2 19 2 24 1
5 -1 6 5 3 13 -3 8 -3 17 0 20 9 8 23 -3 23 -18z m592 -46 c2 -8 9 -20 17 -26
8 -6 11 -16 7 -22 -4 -7 -21 3 -47 28 -34 33 -39 41 -27 54 11 13 15 12 30 -2
9 -9 18 -24 20 -32z m-368 5 c3 -8 1 -15 -4 -15 -6 0 -10 7 -10 15 0 8 2 15 4
15 2 0 6 -7 10 -15z m62 -40 c-11 -8 -22 -12 -25 -9 -6 6 19 24 34 24 6 -1 1
-7 -9 -15z m420 -20 c10 -8 15 -14 9 -14 -5 0 -19 6 -29 14 -11 8 -15 15 -10
15 6 0 19 -7 30 -15z m88 -14 c3 -5 -1 -11 -9 -14 -9 -4 -12 -1 -8 9 6 16 10
17 17 5z m-886 -51 c-2 -21 4 -30 19 -30 13 0 14 -3 6 -11 -6 -6 -9 -18 -6
-25 3 -8 0 -14 -7 -14 -6 0 -9 4 -5 9 3 5 1 12 -5 16 -5 3 -10 1 -10 -5 0 -6
-5 -8 -11 -4 -8 4 -7 9 2 15 11 6 9 14 -9 38 -28 38 -28 42 2 28 14 -7 24 -14
24 -17z m912 23 c-1 -20 -16 -31 -30 -22 -13 8 -13 10 0 19 18 12 30 13 30 3z
m-844 -83 c8 0 14 -4 14 -10 0 -16 -36 -11 -51 7 -12 15 -12 16 4 10 10 -4 25
-7 33 -7z m44 -21 c0 -11 -4 -17 -10 -14 -5 3 -10 15 -10 26 0 11 5 17 10 14
6 -3 10 -15 10 -26z m-149 -86 c-8 -15 -10 -15 -11 -2 0 17 10 32 18 25 2 -3
-1 -13 -7 -23z m29 -7 c0 -3 -4 -8 -10 -11 -5 -3 -10 -1 -10 4 0 6 5 11 10 11
6 0 10 -2 10 -4z m-40 -36 c0 -5 -5 -10 -11 -10 -5 0 -7 5 -4 10 3 6 8 10 11
10 2 0 4 -4 4 -10z m48 -116 c39 -19 40 -22 7 -20 -14 0 -25 5 -25 10 0 4 -9
6 -20 3 -10 -3 -24 1 -31 9 -16 20 28 19 69 -2z m108 -36 c4 -5 -4 -8 -17 -6
-12 1 -24 8 -26 15 -5 14 34 6 43 -9z"/>
<path d="M1728 2339 c-10 -5 -18 -16 -18 -24 0 -12 6 -12 35 2 24 12 31 19 23
25 -16 10 -19 10 -40 -3z"/>
<path d="M1640 2300 c-19 -11 -42 -22 -50 -26 -8 -3 -37 -16 -65 -29 -27 -13
-60 -26 -73 -30 -12 -4 -19 -11 -16 -17 4 -7 2 -8 -4 -4 -7 4 -20 3 -29 -3
-17 -9 -17 -10 0 -17 12 -4 60 13 140 51 130 61 141 68 136 83 -2 6 -19 2 -39
-8z"/>
<path d="M3916 2303 c-9 -22 -7 -26 9 -19 18 6 20 -5 4 -21 -18 -18 -15 -80 5
-102 15 -16 16 -24 7 -35 -14 -17 -20 -13 108 -70 l105 -47 73 36 c48 24 73
41 73 53 0 14 2 15 10 2 11 -17 27 -5 32 24 2 14 -7 23 -32 34 l-35 14 24 -26
c36 -38 9 -32 -30 7 -42 41 -237 128 -268 120 -14 -4 -21 -1 -19 6 2 7 -11 18
-29 26 -27 12 -32 11 -37 -2z m52 -112 c3 -8 -1 -12 -9 -9 -7 2 -15 10 -17 17
-3 8 1 12 9 9 7 -2 15 -10 17 -17z m62 -53 c0 -6 -7 -5 -15 2 -8 7 -15 17 -15
22 0 6 7 5 15 -2 8 -7 15 -17 15 -22z m164 -10 c18 -34 11 -55 -7 -23 -10 18
-17 55 -11 55 1 0 10 -14 18 -32z m-24 -28 c0 -5 -4 -10 -10 -10 -5 0 -10 5
-10 10 0 6 5 10 10 10 6 0 10 -4 10 -10z m-55 -11 c11 -17 -1 -21 -15 -4 -8 9
-8 15 -2 15 6 0 14 -5 17 -11z"/>
<path d="M1260 2226 c0 -2 7 -6 15 -10 8 -3 15 -1 15 4 0 6 -7 10 -15 10 -8 0
-15 -2 -15 -4z"/>
<path d="M1308 2148 c-27 -11 -48 -24 -48 -29 0 -5 -7 -9 -15 -9 -8 0 -15 -5
-15 -11 0 -6 -7 -8 -16 -5 -19 7 -57 -11 -49 -25 4 -5 -6 -9 -20 -9 -34 0 -85
-27 -85 -45 0 -12 5 -12 25 -3 13 6 22 15 18 21 -3 6 -1 7 6 3 12 -8 281 112
281 126 0 14 -33 8 -82 -14z"/>
<path d="M4360 2120 c0 -5 5 -10 10 -10 6 0 10 5 10 10 0 6 -4 10 -10 10 -5 0
-10 -4 -10 -10z"/>
<path d="M1738 1987 l-88 -40 3 -53 c1 -29 5 -47 9 -41 12 20 20 0 9 -21 -6
-12 -8 -30 -3 -41 7 -20 10 -19 99 23 51 24 89 47 85 51 -4 5 -1 5 5 1 7 -4
22 -2 33 4 19 10 19 13 -17 85 -21 41 -40 75 -43 74 -3 0 -44 -19 -92 -42z
m105 -37 c3 -14 1 -20 -6 -17 -7 3 -11 10 -9 16 1 6 -3 11 -9 11 -5 0 -7 5 -4
10 9 14 21 5 28 -20z m-35 -60 c7 0 12 -4 12 -10 0 -15 -8 -12 -43 12 -42 29
-76 65 -69 73 3 3 24 -13 47 -35 22 -22 46 -40 53 -40z m37 10 c3 -5 2 -10 -4
-10 -5 0 -13 5 -16 10 -3 6 -2 10 4 10 5 0 13 -4 16 -10z"/>
<path d="M990 1999 c-39 -18 -43 -22 -27 -31 14 -7 23 -6 36 6 10 9 21 13 24
10 4 -4 9 1 13 10 10 26 2 27 -46 5z"/>
<path d="M882 1949 c-14 -5 -20 -13 -16 -21 5 -8 2 -9 -9 -5 -16 6 -227 -85
-227 -98 0 -6 168 -371 197 -429 13 -24 17 -27 24 -14 6 11 -20 76 -86 218
-53 112 -94 208 -92 213 1 5 59 35 127 67 68 31 126 62 128 69 4 13 -14 13
-46 0z m-47 -519 c3 -5 1 -10 -4 -10 -6 0 -11 5 -11 10 0 6 2 10 4 10 3 0 8
-4 11 -10z"/>
<path d="M1500 1877 c-47 -23 -119 -57 -160 -76 -41 -19 -76 -35 -78 -36 -10
-8 13 -35 26 -30 8 3 20 1 26 -4 6 -5 22 -11 35 -13 14 -1 26 -9 29 -17 3 -8
0 -11 -6 -7 -6 3 -14 1 -18 -5 -4 -7 -9 -8 -13 -1 -3 6 -19 14 -35 18 -25 6
-27 5 -17 -12 7 -11 45 -91 86 -179 43 -94 80 -161 89 -163 9 -2 16 1 16 7 0
6 7 11 15 11 23 0 18 -15 -9 -29 l-24 -13 40 -87 c111 -239 117 -251 143 -251
14 0 32 11 44 26 25 32 27 23 4 -28 -13 -29 -21 -37 -35 -32 -23 7 -23 -7 3
-57 19 -38 21 -40 34 -22 8 10 15 13 15 6 0 -8 17 -4 49 10 26 12 46 27 44 33
-6 16 18 29 27 15 5 -9 10 -8 20 3 7 9 16 13 21 10 19 -11 6 26 -56 156 -35
74 -68 134 -74 133 -6 -2 -10 7 -8 20 2 18 -2 22 -23 19 -22 -2 -23 -1 -9 10
8 7 18 20 21 28 3 9 63 42 132 74 105 49 125 62 121 77 -6 18 22 85 31 76 3
-3 1 -22 -5 -43 -6 -21 -9 -39 -7 -41 2 -2 15 2 30 8 23 11 26 17 21 43 -11
52 -16 66 -26 66 -5 0 -9 11 -9 24 0 14 -5 28 -11 32 -16 10 -89 -27 -90 -45
0 -10 -3 -11 -5 -4 -6 14 -14 11 -147 -52 -103 -48 -163 -68 -139 -44 6 7 12
18 12 23 0 6 -5 4 -10 -4 -8 -13 -12 -12 -27 4 -10 10 -12 16 -5 12 23 -13 19
26 -9 92 -17 40 -22 44 -30 29 -6 -9 -15 -15 -20 -12 -5 4 -6 11 -3 17 4 6 0
15 -7 20 -10 7 -8 8 9 5 18 -4 22 -2 17 12 -4 13 5 22 32 35 62 29 83 45 77
60 -3 8 -12 12 -20 9 -15 -6 -20 12 -5 22 8 4 9 27 2 67 -2 10 -31 38 -39 37
-4 0 -45 -19 -92 -42z m46 -24 c-11 -11 -17 4 -9 23 7 18 8 18 11 1 2 -10 1
-21 -2 -24z m-31 -3 c3 -5 -1 -10 -9 -10 -9 0 -16 5 -16 10 0 6 4 10 9 10 6 0
13 -4 16 -10z m19 -25 c-4 -8 -11 -15 -16 -15 -6 0 -5 6 2 15 7 8 14 15 16 15
2 0 1 -7 -2 -15z m-64 -5 c0 -5 -4 -10 -10 -10 -5 0 -10 5 -10 10 0 6 5 10 10
10 6 0 10 -4 10 -10z m-50 -140 c0 -5 -7 -10 -16 -10 -8 0 -12 5 -9 10 3 6 10
10 16 10 5 0 9 -4 9 -10z m80 0 c0 -5 -2 -10 -4 -10 -3 0 -8 5 -11 10 -3 6 -1
10 4 10 6 0 11 -4 11 -10z m10 -55 c0 -8 -4 -15 -10 -15 -5 0 -10 7 -10 15 0
8 5 15 10 15 6 0 10 -7 10 -15z m422 -80 c3 -14 1 -25 -3 -25 -5 0 -9 11 -9
25 0 14 2 25 4 25 2 0 6 -11 8 -25z m-479 -31 c-3 -8 -9 -14 -14 -14 -5 0 -9
-5 -9 -11 0 -5 5 -7 10 -4 6 3 10 1 10 -5 0 -13 -28 -25 -37 -16 -4 3 -1 17 6
30 8 13 11 29 7 34 -3 6 2 8 13 5 12 -3 17 -11 14 -19z m54 -26 c-3 -8 -6 -5
-6 6 -1 11 2 17 5 13 3 -3 4 -12 1 -19z m443 2 c0 -5 -5 -10 -11 -10 -5 0 -7
5 -4 10 3 6 8 10 11 10 2 0 4 -4 4 -10z m-346 -26 c9 -23 -2 -54 -19 -54 -18
0 -24 30 -11 53 13 21 22 22 30 1z m-54 -39 c6 -16 17 -25 30 -25 17 0 20 -4
14 -22 -3 -13 -13 -30 -21 -39 -7 -9 -13 -20 -11 -25 4 -15 -20 -74 -31 -74
-6 0 -8 6 -6 13 2 6 6 28 9 48 3 20 8 43 12 52 4 12 1 17 -11 17 -11 0 -15 5
-11 15 3 8 2 15 -3 15 -12 0 -10 34 3 42 15 11 15 11 26 -17z m-62 -7 c-2 -6
-10 -14 -16 -16 -7 -2 -10 2 -6 12 7 18 28 22 22 4z m312 -23 c-7 -8 -17 -15
-22 -15 -6 0 -5 7 2 15 7 8 17 15 22 15 6 0 5 -7 -2 -15z m-120 -78 c0 -5 -12
-6 -26 -3 -21 6 -27 3 -31 -14 -7 -27 -23 -7 -23 29 0 20 4 22 25 17 17 -4 25
-2 25 6 1 15 30 -20 30 -35z m-30 -77 c0 -5 -4 -10 -10 -10 -5 0 -10 5 -10 10
0 6 5 10 10 10 6 0 10 -4 10 -10z m-44 -61 c3 -6 4 -12 2 -15 -6 -5 -68 50
-68 60 0 9 56 -30 66 -45z m64 1 c0 -5 -5 -10 -11 -10 -5 0 -7 5 -4 10 3 6 8
10 11 10 2 0 4 -4 4 -10z m-100 -20 c0 -5 -4 -10 -10 -10 -5 0 -10 5 -10 10 0
6 5 10 10 10 6 0 10 -4 10 -10z m160 -10 c0 -5 -5 -10 -11 -10 -5 0 -7 5 -4
10 3 6 8 10 11 10 2 0 4 -4 4 -10z m-97 -30 c3 -11 2 -20 -3 -20 -4 0 -10 9
-13 20 -3 11 -2 20 3 20 4 0 10 -9 13 -20z m32 0 c3 -5 1 -10 -4 -10 -6 0 -11
5 -11 10 0 6 2 10 4 10 3 0 8 -4 11 -10z m15 -30 c0 -5 -4 -10 -10 -10 -5 0
-10 5 -10 10 0 6 5 10 10 10 6 0 10 -4 10 -10z m-20 -68 c0 -7 -4 -10 -10 -7
-5 3 -10 16 -10 28 0 18 2 19 10 7 5 -8 10 -21 10 -28z m80 5 c0 -18 -2 -19
-10 -7 -13 20 -13 43 0 35 6 -3 10 -16 10 -28z m15 -36 c-3 -5 5 -17 17 -25
22 -16 22 -16 3 -30 -15 -11 -22 -11 -27 -3 -12 18 -9 67 3 67 5 0 8 -4 4 -9z"/>
<path d="M1540 1394 c0 -8 5 -12 10 -9 6 4 8 11 5 16 -9 14 -15 11 -15 -7z"/>
<path d="M3340 1752 c0 -5 7 -15 15 -22 9 -7 14 -18 12 -24 -4 -11 36 -36 59
-36 23 0 16 15 -18 41 -62 46 -68 50 -68 41z"/>
<path d="M4220 1716 c-75 -26 -260 -120 -257 -130 3 -6 11 -10 18 -8 20 5 273
123 282 132 16 15 -8 18 -43 6z"/>
<path d="M3733 1493 c-115 -54 -183 -91 -183 -101 0 -9 -6 -12 -17 -8 -11 5
-68 -16 -153 -55 -158 -74 -146 -67 -133 -80 7 -7 48 7 136 47 75 35 121 61
114 66 -8 5 -7 9 5 13 10 4 21 4 27 1 11 -7 249 99 266 118 6 6 16 11 23 12
26 2 32 4 31 12 -3 17 2 26 9 16 11 -18 83 13 75 32 -3 8 -8 14 -12 13 -3 0
-88 -39 -188 -86z"/>
<path d="M3980 1491 c0 -16 -2 -35 -5 -43 -2 -7 2 -21 9 -31 13 -17 16 -17 59
4 l45 22 -29 28 c-27 27 -61 49 -73 49 -3 0 -6 -13 -6 -29z"/>
<path d="M3790 1446 c-91 -42 -136 -69 -139 -81 -2 -13 -5 -15 -11 -5 -6 10
-28 3 -95 -29 -47 -22 -90 -41 -96 -41 -5 0 -9 -5 -9 -10 0 -11 50 -110 55
-110 2 0 24 9 49 20 50 21 51 29 13 82 -19 25 -19 28 -2 44 14 14 18 15 25 3
24 -38 57 -69 74 -69 10 0 59 20 110 44 50 24 101 46 114 50 24 8 27 16 12 34
-7 9 -7 9 2 2 7 -5 21 -10 31 -10 17 0 19 6 15 50 -4 44 -3 50 13 50 18 0 18
1 2 20 -10 11 -20 20 -23 20 -3 -1 -66 -29 -140 -64z m34 -35 c-3 -9 -9 -24
-11 -33 -3 -10 -9 -18 -12 -18 -17 0 -19 14 -6 40 8 15 11 31 7 34 -3 4 2 4
11 0 12 -4 16 -12 11 -23z m-34 -71 c0 -5 -4 -10 -10 -10 -5 0 -10 5 -10 10 0
6 5 10 10 10 6 0 10 -4 10 -10z"/>
<path d="M856 1364 c-4 -10 -1 -24 8 -33 22 -22 30 -7 13 24 -12 24 -15 25
-21 9z"/>
<path d="M882 1275 c7 -15 20 -25 32 -25 19 0 18 2 -8 25 -36 31 -38 31 -24 0z"/>
<path d="M3287 1212 l-119 -57 28 -22 c15 -13 25 -25 22 -29 -4 -3 -19 6 -35
20 -15 14 -31 25 -34 24 -3 -2 -68 -32 -143 -67 -93 -44 -132 -68 -124 -74 8
-5 5 -6 -9 -2 -26 7 -63 -13 -56 -32 3 -7 -1 -13 -8 -13 -8 0 -5 -6 7 -15 16
-12 17 -16 4 -24 -12 -9 -12 -11 3 -17 9 -3 17 -14 17 -24 0 -16 12 -13 91 23
l91 42 -28 22 c-16 12 -26 25 -22 28 3 3 13 -1 22 -10 9 -9 21 -13 27 -9 6 3
14 1 18 -5 11 -18 101 23 101 46 0 14 2 15 9 5 7 -12 14 -11 40 2 17 10 29 22
25 27 -4 7 1 9 13 5 13 -4 58 12 129 46 90 44 109 57 110 76 0 12 -5 22 -12
22 -8 0 -17 14 -22 32 -4 17 -12 33 -17 34 -6 2 -63 -23 -128 -54z m43 -92 c0
-5 -2 -10 -4 -10 -3 0 -8 5 -11 10 -3 6 -1 10 4 10 6 0 11 -4 11 -10z m-187
-15 c4 -8 2 -17 -2 -20 -5 -2 -11 4 -14 15 -6 23 8 27 16 5z m-239 -171 c14
-5 14 -8 0 -21 -17 -17 -44 -10 -44 12 0 16 17 19 44 9z"/>
<path d="M3160 1227 c-63 -31 -187 -89 -319 -150 -48 -21 -61 -31 -50 -38 22
-14 29 -11 22 9 -6 14 -4 15 9 5 12 -11 39 -1 157 55 78 37 138 72 134 76 -4
5 0 6 10 3 12 -5 16 -3 11 5 -5 8 -2 9 10 5 25 -10 97 29 90 48 -4 8 -7 15 -8
14 0 0 -30 -15 -66 -32z"/>
<path d="M914 1214 c4 -11 26 -60 49 -111 30 -67 44 -88 49 -75 6 15 7 15 8
-3 2 -11 2 -26 1 -32 -1 -7 5 -13 14 -13 8 0 15 2 15 5 0 14 -34 73 -40 70 -4
-3 -7 6 -7 19 0 30 -63 148 -82 154 -10 4 -12 0 -7 -14z"/>
<path d="M2330 1183 c0 -20 2 -21 25 -11 13 6 22 15 18 21 -3 5 -9 3 -14 -4
-8 -12 -11 -11 -19 1 -8 12 -10 11 -10 -7z"/>
<path d="M2718 1020 c-21 -9 -41 -20 -45 -25 -5 -4 -2 -5 6 0 8 4 16 2 21 -5
5 -9 18 -7 49 9 39 20 58 40 27 28 -8 -3 -16 -2 -18 2 -2 4 -20 0 -40 -9z"/>
<path d="M1044 956 c-8 -22 38 -117 54 -111 9 3 11 -1 7 -15 -4 -13 29 -94
100 -247 59 -126 110 -232 115 -236 4 -5 54 13 111 39 121 55 116 51 102 65
-8 8 -36 -1 -98 -30 -48 -23 -91 -41 -95 -41 -4 0 -37 66 -75 148 -38 81 -97
207 -132 280 -35 74 -63 138 -63 142 0 17 -20 21 -26 6z"/>
<path d="M2607 957 c3 -6 1 -7 -5 -3 -13 8 -214 -83 -207 -95 3 -4 -3 -7 -14
-6 -31 2 -140 -54 -134 -69 6 -17 63 2 63 22 0 8 10 14 24 14 13 0 26 6 29 14
3 8 14 12 24 10 10 -3 79 24 153 59 120 58 131 65 98 65 -24 0 -36 -4 -31 -11z"/>
<path d="M2723 949 c-39 -18 -41 -21 -33 -49 10 -35 -1 -39 -28 -10 -18 20
-19 20 -90 -12 -40 -18 -72 -38 -72 -46 0 -7 -5 -10 -11 -7 -5 4 -24 1 -40 -5
-27 -12 -28 -14 -12 -25 26 -19 9 -30 -17 -12 -20 14 -31 11 -148 -45 -70 -33
-149 -70 -177 -83 -226 -105 -272 -128 -282 -142 -7 -9 -13 -12 -13 -5 0 6 -7
9 -15 6 -11 -5 -12 -11 -4 -25 9 -18 8 -19 -9 -8 -17 11 -32 7 -96 -21 -42
-18 -76 -37 -76 -41 0 -5 -6 -8 -12 -6 -8 1 -14 -10 -16 -25 -2 -17 -9 -28
-18 -28 -11 0 -13 6 -9 20 4 11 2 20 -4 20 -6 0 -11 -4 -11 -10 0 -5 -6 -10
-14 -10 -7 0 -58 -21 -112 -47 -64 -30 -99 -42 -102 -34 -2 6 -10 17 -17 25
-8 7 -11 17 -7 21 4 5 1 5 -7 0 -9 -5 -12 -20 -8 -49 4 -30 3 -36 -4 -24 -14
25 -31 22 -27 -4 2 -11 -3 -23 -11 -26 -11 -4 -12 1 -6 19 4 13 8 40 9 60 0
20 7 44 15 53 17 20 3 73 -17 68 -14 -2 -35 45 -26 59 3 5 -1 21 -9 36 -8 16
-39 81 -68 146 -47 103 -69 138 -69 108 0 -5 -15 -9 -34 -8 -22 1 -32 6 -29
15 9 23 -24 12 -35 -12 -10 -22 4 -56 114 -292 68 -148 130 -272 137 -276 6
-4 9 -8 4 -8 -8 0 19 -70 32 -83 13 -13 60 13 54 30 -3 8 -13 11 -23 8 -9 -3
-23 1 -29 9 -10 12 -9 14 6 10 11 -3 27 3 37 15 12 13 31 21 50 21 18 0 49 9
70 20 22 10 43 17 48 14 5 -3 15 -1 22 5 8 7 38 14 67 18 30 3 69 13 87 22
l33 17 -21 27 c-24 30 -36 77 -20 77 5 0 10 -10 10 -22 0 -13 10 -36 23 -51
l23 -29 36 18 c31 14 35 20 27 35 -13 25 -11 39 6 39 8 0 12 -6 10 -12 -3 -7
-1 -19 3 -26 12 -18 275 107 268 128 -16 50 -17 60 -8 60 5 0 13 -16 16 -35 4
-19 8 -35 10 -35 1 0 34 15 73 34 38 19 117 56 174 82 57 26 106 50 109 53 3
3 10 7 17 8 7 2 64 27 128 57 98 46 115 58 115 78 1 21 2 22 14 5 13 -16 17
-15 79 14 65 30 66 30 55 60 -6 17 -19 36 -29 42 -11 7 -19 15 -19 20 0 4 5 5
10 2 6 -3 10 1 10 9 0 20 -4 19 -57 -5z m-62 -88 c6 11 9 10 15 -4 4 -12 0
-23 -12 -32 -24 -17 -37 -9 -31 21 2 14 0 27 -5 30 -4 3 -5 10 -1 17 4 7 10 0
16 -17 7 -21 12 -25 18 -15z m-120 -64 c-6 -8 -9 -16 -6 -18 2 -3 -5 -5 -15
-6 -25 -2 -25 6 -2 23 22 17 38 18 23 1z m-137 -33 c3 -8 2 -12 -4 -9 -6 3
-10 10 -10 16 0 14 7 11 14 -7z m-1356 -53 c-1 -18 6 -38 17 -51 15 -17 16
-23 5 -33 -9 -8 -11 -8 -6 0 3 6 -5 20 -18 30 -19 14 -23 24 -19 51 7 40 24
43 21 3z m62 -31 c0 -5 -5 -10 -11 -10 -5 0 -7 5 -4 10 3 6 8 10 11 10 2 0 4
-4 4 -10z m1180 -9 c0 -6 -4 -12 -10 -16 -5 -3 -7 -13 -4 -23 5 -15 4 -15 -6
1 -6 10 -9 25 -6 33 6 16 26 19 26 5z m-1244 -48 c-10 -10 -19 5 -10 18 6 11
8 11 12 0 2 -7 1 -15 -2 -18z m1259 17 c3 -5 1 -10 -4 -10 -6 0 -11 5 -11 10
0 6 2 10 4 10 3 0 8 -4 11 -10z m-1195 -91 c0 -16 -17 -10 -24 9 -3 9 -9 24
-12 32 -3 8 4 4 15 -9 12 -13 21 -27 21 -32z m15 40 c11 -16 1 -19 -13 -3 -7
8 -8 14 -3 14 5 0 13 -5 16 -11z m885 -9 c0 -5 -5 -10 -11 -10 -5 0 -7 5 -4
10 3 6 8 10 11 10 2 0 4 -4 4 -10z m-855 -61 c4 -17 4 -33 1 -36 -3 -4 -6 3
-6 15 0 11 -4 24 -10 27 -13 8 -13 25 -1 25 5 0 12 -14 16 -31z m922 9 c-3 -8
-6 -5 -6 6 -1 11 2 17 5 13 3 -3 4 -12 1 -19z m-221 -64 c-3 -9 -6 -24 -6 -35
0 -10 -4 -19 -10 -19 -11 0 -13 30 -4 54 3 9 11 16 16 16 6 0 7 -7 4 -16z
m-692 -19 c-4 -8 -8 -15 -10 -15 -2 0 -4 7 -4 15 0 8 4 15 10 15 5 0 7 -7 4
-15z m581 -4 c3 -5 1 -12 -5 -16 -5 -3 -10 1 -10 9 0 18 6 21 15 7z m-506 -56
c0 -5 -6 -1 -14 9 -8 10 -11 24 -8 29 6 10 21 -16 22 -38z m-69 9 c0 -8 -4
-12 -10 -9 -5 3 -10 10 -10 16 0 5 5 9 10 9 6 0 10 -7 10 -16z m25 -4 c3 -5 1
-10 -4 -10 -6 0 -11 5 -11 10 0 6 2 10 4 10 3 0 8 -4 11 -10z m363 -46 c6 3
13 -1 16 -10 3 -8 2 -12 -4 -9 -6 3 -10 0 -10 -8 0 -8 -7 -17 -15 -21 -8 -3
-15 -2 -15 3 0 5 -3 24 -6 42 -5 31 -4 33 10 15 8 -10 19 -15 24 -12z m-198
-105 c0 -6 -4 -7 -10 -4 -5 3 -10 11 -10 16 0 6 5 7 10 4 6 -3 10 -11 10 -16z
m-80 1 c0 -5 -5 -10 -11 -10 -5 0 -7 5 -4 10 3 6 8 10 11 10 2 0 4 -4 4 -10z
m-10 -35 c0 -8 -4 -15 -10 -15 -5 0 -10 7 -10 15 0 8 5 15 10 15 6 0 10 -7 10
-15z"/>
<path d="M916 815 c4 -8 10 -15 15 -15 4 0 6 7 3 15 -4 8 -10 15 -15 15 -4 0
-6 -7 -3 -15z"/>
<path d="M2163 758 c-18 -11 -33 -24 -33 -30 0 -6 -7 -8 -15 -4 -20 7 -108
-31 -100 -44 8 -14 30 -7 138 43 59 27 84 43 75 48 -18 12 -29 10 -65 -13z"/>
<path d="M1908 643 c-52 -24 -78 -42 -82 -57 -4 -15 -8 -17 -14 -9 -6 10 -17
9 -50 -3 -22 -9 -41 -19 -40 -23 2 -17 -3 -25 -10 -15 -9 14 -141 -46 -154
-70 -11 -20 9 -22 37 -3 11 7 41 21 68 31 26 10 54 25 63 34 9 8 23 16 33 17
9 0 59 22 112 47 53 25 106 49 118 53 21 6 25 26 5 31 -5 1 -43 -14 -86 -33z"/>
<path d="M1448 226 c-15 -8 -29 -12 -32 -8 -3 3 -6 0 -6 -6 0 -15 7 -14 55 8
22 10 33 19 25 19 -8 1 -27 -5 -42 -13z"/>
<path d="M1338 198 c-17 -6 -28 -17 -28 -29 0 -16 4 -17 26 -9 45 18 65 31 59
41 -7 11 -21 11 -57 -3z"/>
</g>
</svg>
